<?xml version="1.0" encoding="utf-8"?>
<!-- Generator: Adobe Illustrator 16.0.0, SVG Export Plug-In . SVG Version: 6.00 Build 0)  -->
<!DOCTYPE svg PUBLIC "-//W3C//DTD SVG 1.1//EN" "http://www.w3.org/Graphics/SVG/1.1/DTD/svg11.dtd">
<svg version="1.1" id="Layer_1" xmlns="http://www.w3.org/2000/svg" xmlns:xlink="http://www.w3.org/1999/xlink" x="0px" y="0px"
	 width="129.978px" height="116px" viewBox="0 0 129.978 116" enable-background="new 0 0 129.978 116" xml:space="preserve">
<g>
	<path fill="#09BCD4" d="M126.708,0.027H3.27C1.464,0.027,0,1.491,0,3.297v85.731c0,1.805,1.464,3.269,3.27,3.269h123.438
		c1.806,0,3.27-1.464,3.27-3.269V3.297C129.978,1.491,128.514,0.027,126.708,0.027z M64.593,87.879
		c-2.551,0-4.621-2.069-4.621-4.621s2.07-4.621,4.621-4.621c2.553,0,4.621,2.069,4.621,4.621S67.146,87.879,64.593,87.879z
		 M123.21,74.241H6.767V6.274H123.21V74.241z"/>
	<polygon fill="#09BCD4" points="64.608,115.783 34.127,115.783 34.127,111.519 46.838,107.51 51.274,98.211 64.608,98.211 
		64.593,98.211 77.927,98.211 82.363,107.51 95.074,111.519 95.074,115.783 64.593,115.783 	"/>
	<rect x="14.662" y="13.094" fill="#09BCD4" width="99.863" height="13.079"/>
	<rect x="14.662" y="30.75" fill="#09BCD4" width="29.675" height="35.312"/>
	<rect x="49.755" y="30.75" fill="#09BCD4" width="29.676" height="35.312"/>
	<rect x="84.85" y="30.75" fill="#09BCD4" width="29.674" height="35.312"/>
</g>
</svg>
