<?xml version="1.0" encoding="utf-8"?>
<!-- Generator: Adobe Illustrator 16.0.0, SVG Export Plug-In . SVG Version: 6.00 Build 0)  -->
<!DOCTYPE svg PUBLIC "-//W3C//DTD SVG 1.1//EN" "http://www.w3.org/Graphics/SVG/1.1/DTD/svg11.dtd">
<svg version="1.1" id="Layer_1" xmlns="http://www.w3.org/2000/svg" xmlns:xlink="http://www.w3.org/1999/xlink" x="0px" y="0px"
	 width="116px" height="116px" viewBox="0 0 116 116" enable-background="new 0 0 116 116" xml:space="preserve">
<g>
	<path fill="#09BCD4" d="M99.492,49.772C97.507,28.438,79.555,11.736,57.7,11.736c-21.732,0-39.607,16.517-41.757,37.682
		L99.492,49.772z"/>
	<circle fill="#09BCD4" cx="57.718" cy="4.847" r="4.847"/>
	<path fill="#09BCD4" d="M114.4,55.738c0-1.75-1.418-3.169-3.169-3.169H4.169C2.419,52.569,1,53.988,1,55.738l0,0
		c0,1.75,1.419,3.168,3.169,3.168h107.062C112.982,58.906,114.4,57.488,114.4,55.738L114.4,55.738z"/>
	<path fill="#09BCD4" d="M35.733,115.391c6.898-10.998,18.455-13.98,26.844-23.488s22.929-21.438,27.03-24.133
		s2.797-5.693,2.797-5.693s-8.017,0-12.304,0c-4.288,0-30.386,16.031-36.164,15.846c-5.779-0.188-14.168-15.846-14.168-15.846
		s-6.711,0-8.554,0c-1.842,0,2.961,7.83,4.639,12.676c1.678,4.848-0.187,9.881-3.169,14.168s0,12.117,0,12.117l-6.741,3.541
		c0,0,3.66,5.924,8.32,8.162C28.924,114.977,35.733,115.391,35.733,115.391z"/>
</g>
</svg>
